<?xml version="1.0" standalone="no"?>
<!DOCTYPE svg PUBLIC "-//W3C//DTD SVG 20010904//EN"
 "http://www.w3.org/TR/2001/REC-SVG-20010904/DTD/svg10.dtd">
<svg version="1.0" xmlns="http://www.w3.org/2000/svg"
 width="401.000000pt" height="401.000000pt" viewBox="0 0 401.000000 401.000000"
 preserveAspectRatio="xMidYMid meet">
<metadata>
Created by potrace 1.11, written by Peter Selinger 2001-2013
</metadata>
<g transform="translate(0.000000,401.000000) scale(0.100000,-0.100000)"
fill="#000000" stroke="none">
<path d="M1360 3916 c-235 -79 -384 -229 -466 -466 -26 -76 -26 -320 0 -395
22 -65 88 -195 98 -195 5 0 8 -5 8 -11 0 -25 167 -179 193 -179 7 0 3 5 -8 11
-31 17 -155 148 -155 165 0 7 -4 14 -8 14 -5 0 -17 17 -27 38 -100 199 -100
415 0 615 10 20 22 37 27 37 4 0 8 4 8 10 0 14 27 46 81 100 65 64 68 65 137
83 56 14 68 14 120 1 87 -23 144 -69 183 -148 18 -38 19 -69 19 -816 l0 -777
-232 -6 c-189 -5 -247 -10 -308 -27 -192 -51 -343 -141 -477 -284 -35 -36 -63
-70 -63 -75 0 -5 -6 -11 -12 -14 -7 -3 -22 -22 -33 -43 -11 -22 -23 -41 -26
-44 -11 -9 -67 -135 -87 -196 -62 -187 -62 -408 0 -599 18 -58 75 -185 87
-195 4 -3 15 -22 26 -44 11 -21 26 -40 32 -43 7 -3 13 -9 13 -14 0 -15 122
-139 180 -183 115 -88 219 -138 360 -176 123 -33 357 -33 480 0 46 12 91 26
100 30 8 4 35 16 60 26 81 32 233 140 308 218 39 41 72 80 72 85 0 5 3 11 8
13 11 5 52 66 52 78 0 5 3 10 8 10 4 0 18 24 31 53 13 28 29 64 37 79 8 14 14
35 14 45 0 10 4 23 9 29 9 8 19 57 41 199 5 33 10 275 10 538 l0 477 335 0
336 0 -3 -832 -3 -833 -22 -41 c-30 -56 -78 -100 -143 -131 l-55 -26 45 -20
c67 -30 261 -29 345 0 79 28 114 44 150 68 45 30 125 100 125 109 0 3 10 16
22 29 41 45 88 148 108 238 19 85 20 129 20 950 0 950 1 936 -63 1069 -39 81
-60 112 -117 171 -70 72 -140 113 -255 150 -79 25 -246 26 -322 2 -49 -15 -70
-33 -40 -33 22 0 91 -41 120 -73 16 -16 41 -49 55 -71 l27 -41 3 -312 3 -313
-335 0 -336 0 -1 643 c0 353 -4 662 -9 687 -18 99 -30 150 -39 167 -5 10 -18
36 -28 58 -10 22 -32 60 -47 85 -46 71 -195 210 -226 210 -5 0 -10 5 -10 10 0
6 -6 10 -12 10 -7 0 -26 7 -43 16 -108 57 -359 73 -485 30z m210 -2561 c0
-565 -1 -588 -21 -647 -50 -150 -163 -264 -315 -317 -81 -29 -237 -29 -310 -1
-209 79 -366 261 -446 515 -31 101 -32 339 0 437 89 282 291 484 567 568 78
24 102 26 333 28 l192 2 0 -585z"/>
</g>
</svg>
